# xmcd CD database file
#
# Track frame offsets:
#	150
#	39479
#	54263
#	68714
#	84842
#	97682
#	109220
#	126744
#	142255
#	155925
#	170587
#	187150
#	202019
#	214425
#	226737
#	242297
#	256328
#	274340
#
# Disc length: 3980 seconds
#
# Revision: 3
# Processed by: cddbd v1.5.2PL0 Copyright (c) Steve Scherf et al.
# Submitted via: CDex 1.94
#
DISCID=0d0f8a12
DTITLE=Various Artist - Stax - Chartbusters # 06
DYEAR=1900
DGENRE=Blues
TTITLE0=Little Milton - Blind Man
TTITLE1=Rufus Thomas - Do The Funky Chicken
TTITLE2=The Bar Kays - Son Of Shaft
TTITLE3=The Dramatics - Whatcha See Is Whatcha Get
TTITLE4=The Emotions - So I Can Love You
TTITLE5=Carla Thomas - Something Good (Is Going To Happen To You)
TTITLE6=Booker T And The MG's - Hang 'Em Hight
TTITLE7=Eddie Floyd - Soul Street
TTITLE8=Johnnie Taylor - Jody's Got Your Girl And Gone
TTITLE9=The Temprees - The Whole Bit Of Love
TTITLE10=William Bell - I'll Be Home
TTITLE11=Isaac Hayes - Do Your Thing
TTITLE12=The Mad Lads - These Old Memories
TTITLE13=The Soul Childeren - What's Happening Baby
TTITLE14=The Staple Singers - Touch A Hand (Make A Friend)
TTITLE15=Little Milton - Who Can Handle Me Is You
TTITLE16=Johnnie Taylor - We're Getting Careless With Our Love
TTITLE17=Isaac Hayes - Our Day Will Come
EXTD=
EXTT0=
EXTT1=
EXTT2=
EXTT3=
EXTT4=
EXTT5=
EXTT6=
EXTT7=
EXTT8=
EXTT9=
EXTT10=
EXTT11=
EXTT12=
EXTT13=
EXTT14=
EXTT15=
EXTT16=
EXTT17=
PLAYORDER=
